<svg id="visual" viewBox="0 0 900 600" width="900" height="600" xmlns="http://www.w3.org/2000/svg" xmlns:xlink="http://www.w3.org/1999/xlink" version="1.1"><rect x="0" y="0" width="900" height="600" fill="#00CC99"></rect><path d="M216 0L215.3 20C214.7 40 213.3 80 207 120C200.7 160 189.3 200 208.8 240C228.3 280 278.7 320 280.2 360C281.7 400 234.3 440 214 480C193.7 520 200.3 560 203.7 580L207 600L0 600L0 580C0 560 0 520 0 480C0 440 0 400 0 360C0 320 0 280 0 240C0 200 0 160 0 120C0 80 0 40 0 20L0 0Z" fill="#fff" stroke-linecap="round" stroke-linejoin="miter"></path></svg>