<svg id="visual" viewBox="0 0 960 540" width="960" height="540" xmlns="http://www.w3.org/2000/svg" xmlns:xlink="http://www.w3.org/1999/xlink" version="1.1"><rect x="0" y="0" width="960" height="540" fill="#00CC99"></rect><defs><linearGradient id="grad1_0" x1="43.8%" y1="0%" x2="100%" y2="100%"><stop offset="14.444444444444446%" stop-color="#00cc99" stop-opacity="1"></stop><stop offset="85.55555555555554%" stop-color="#00cc99" stop-opacity="1"></stop></linearGradient></defs><defs><linearGradient id="grad2_0" x1="0%" y1="0%" x2="56.3%" y2="100%"><stop offset="14.444444444444446%" stop-color="#00cc99" stop-opacity="1"></stop><stop offset="85.55555555555554%" stop-color="#00cc99" stop-opacity="1"></stop></linearGradient></defs><g transform="translate(960, 0)"><path d="M0 324C-35.2 322.6 -70.4 321.3 -100.1 308.1C-129.9 295 -154.2 270.1 -181 249.2C-207.8 228.3 -237.1 211.3 -256.5 186.3C-275.8 161.3 -285.2 128.2 -294.8 95.8C-304.4 63.4 -314.2 31.7 -324 0L0 0Z" fill="#FFFFFF"></path></g><g transform="translate(0, 540)"><path d="M0 -324C33.6 -320.7 67.2 -317.4 100.1 -308.1C133 -298.9 165.2 -283.8 189.9 -261.3C214.5 -238.8 231.7 -208.8 248.4 -180.5C265.1 -152.1 281.3 -125.3 293.9 -95.5C306.4 -65.7 315.2 -32.8 324 0L0 0Z" fill="#FFFFFF"></path></g></svg>